<?xml version="1.0" encoding="utf-8"?>
<!-- Generator: Adobe Illustrator 16.1.0, SVG Export Plug-In . SVG Version: 6.00 Build 0)  -->
<!DOCTYPE svg PUBLIC "-//W3C//DTD SVG 1.1//EN" "http://www.w3.org/Graphics/SVG/1.1/DTD/svg11.dtd">
<svg version="1.1" id="Layer_1" xmlns="http://www.w3.org/2000/svg" xmlns:xlink="http://www.w3.org/1999/xlink" x="0px" y="0px"
	 width="181px" height="42px" viewBox="0 0 181 42" enable-background="new 0 0 181 42" xml:space="preserve">
<g>
	<g>
		<path fill="#878787" d="M1.38,12.86h11.882c1.621,0,2.601,0.141,3.381,0.521c1.06,0.52,1.94,1.9,1.94,3.461
			c0,1.34-0.56,2.78-2.201,3.261v0.039c0.84,0.24,1.521,0.961,1.621,2.201l0.24,3.12c0.06,0.641,0.34,1.24,0.7,1.681h-6.161
			c-0.2-0.42-0.2-1.04-0.3-2.7c-0.06-1.061-0.42-1.701-1.46-1.701H7.021v4.401H1.38V12.86z M7.021,19.142h4.001
			c1.1,0,1.56-0.439,1.56-1.34c0-1.08-0.7-1.341-1.64-1.341H7.021V19.142z"/>
		<path fill="#878787" d="M19.42,12.86h15.183v3.48h-9.542v1.921h8.862v3.48h-8.862v1.921h9.542v3.48H19.42V12.86z"/>
		<path fill="#878787" d="M39.301,12.86h6.921l6.081,14.283h-6.001l-0.6-1.641h-5.881l-0.6,1.641h-6.001L39.301,12.86z
			 M42.781,17.182h-0.04l-1.68,4.841h3.4L42.781,17.182z"/>
		<path fill="#878787" d="M51.82,12.86h10.982c4.841,0,7.401,1.881,7.401,7.142c0,5.021-2.541,7.142-7.281,7.142H51.82V12.86z
			 M57.461,23.543h3.241c2.581,0,3.621-1.28,3.621-3.541s-1.04-3.541-3.621-3.541h-3.241V23.543z"/>
		<path fill="#B5B5B5" d="M74.2,21.082c-2.761-0.42-3.901-2.021-3.901-4.021c0-3.701,3.621-4.701,8.262-4.701
			c6.361,0,8.982,1.66,9.182,4.681h-6.562c0-0.58-0.34-0.939-0.86-1.14c-0.5-0.221-1.14-0.3-1.76-0.3c-1.68,0-2.26,0.42-2.26,1.02
			c0,0.4,0.18,0.66,0.74,0.74l6.742,1c2.841,0.421,4.601,1.741,4.601,4.161c0,3.48-2.84,5.121-9.182,5.121
			c-4.341,0-9.082-0.6-9.102-4.801h6.802c0.02,0.479,0.2,0.8,0.6,1.021c0.42,0.199,1.04,0.3,1.92,0.3c1.76,0,2.24-0.48,2.24-1.16
			c0-0.42-0.26-0.841-1.02-0.961L74.2,21.082z"/>
		<path fill="#B5B5B5" d="M89.039,12.86h11.643c4.002,0,5.482,1.801,5.482,4.981c0,2.74-1.441,4.86-5.441,4.86h-6.042v4.441h-5.642
			V12.86z M94.681,19.222h3.641c1.421,0,1.96-0.439,1.96-1.48c0-1.08-0.539-1.52-1.96-1.52h-3.641V19.222z"/>
		<path fill="#B5B5B5" d="M106.779,12.86h5.641v14.283h-5.641V12.86z"/>
		<path fill="#B5B5B5" d="M121.541,21.662l-1.861,1.641v3.841h-5.641V12.86h5.641v5.041l5.242-5.041h7.48l-6.381,5.521l6.922,8.762
			h-7.502L121.541,21.662z"/>
		<path fill="#B5B5B5" d="M132.459,12.86h15.184v3.48H138.1v1.921h8.863v3.48H138.1v1.921h9.543v3.48h-15.184V12.86z"/>
	</g>
	<g>
		<g>
			<g>
				<g>
					<path fill="#949494" d="M156.394,0c0,0-8.088,9.5-4.503,27.78c0,0,1.89,1.078,3.762-0.175
						C155.652,27.605,151.797,9.678,156.394,0z"/>
					<path fill="#949494" d="M165.418,41.468c0,0-9.475-9.073-8.637-27.461c0,0,1.728-1.164,3.782-0.008
						C160.563,13.999,159.391,32.048,165.418,41.468z"/>
					<path fill="#949494" d="M168.695,0c0,0-8.085,9.5-4.502,27.78c0,0,1.896,1.078,3.771-0.175
						C167.964,27.605,164.107,9.678,168.695,0z"/>
					<path fill="#949494" d="M177.721,41.468c0,0-9.476-9.073-8.632-27.461c0,0,1.729-1.164,3.785-0.008
						C172.874,13.999,171.704,32.048,177.721,41.468z"/>
					<path fill="#949494" d="M181,0c0,0-8.085,9.5-4.499,27.78c0,0,1.887,1.078,3.768-0.175C180.269,27.605,176.409,9.678,181,0z"/>
				</g>
			</g>
		</g>
	</g>
</g>
</svg>
